<svg xmlns="http://www.w3.org/2000/svg" width="163" height="36">
    <path fill-rule="evenodd" d="M162.693 27.848v7.392h-21.121V1.64h20.88v7.392h-13.2V14.6h12v7.296h-12v5.952h13.441zm-39.601.576c1.696 0 3.24-.367 4.632-1.104 1.392-.735 2.44-1.744 3.144-3.024l6.625 3.84c-1.441 2.4-3.441 4.296-6 5.688-2.561 1.392-5.361 2.088-8.401 2.088-5.024 0-9.191-1.671-12.504-5.016-3.311-3.343-4.967-7.495-4.967-12.456 0-4.959 1.656-9.111 4.967-12.456 3.313-3.343 7.48-5.016 12.504-5.016 3.008 0 5.792.696 8.352 2.088 2.56 1.392 4.576 3.288 6.049 5.688l-6.625 3.84c-.736-1.311-1.792-2.328-3.167-3.048-1.377-.72-2.913-1.08-4.609-1.08-2.975 0-5.352.912-7.128 2.736-1.776 1.824-2.664 4.241-2.664 7.248 0 3.008.888 5.424 2.664 7.248 1.776 1.824 4.153 2.736 7.128 2.736zM93.141 1.64h7.68v33.6h-7.68V1.64zm-24.096 33.6L58.101 1.64h8.4l7.44 24.72 7.44-24.72h8.4l-10.944 33.6h-9.792zM35.061 1.64h20.88v7.392h-13.2V14.6h12v7.296h-12v5.952h13.44v7.392h-21.12V1.64zm-21.119 33.6H.502V1.64h13.44c4.639 0 8.52 1.608 11.64 4.824 3.12 3.216 4.68 7.209 4.68 11.976 0 4.769-1.56 8.76-4.68 11.976-3.12 3.216-7.001 4.824-11.64 4.824zm6.456-23.64c-1.649-1.711-3.801-2.568-6.456-2.568h-5.76v18.816h5.76c2.655 0 4.807-.855 6.456-2.568 1.647-1.711 2.472-3.991 2.472-6.84 0-2.848-.825-5.128-2.472-6.84z"/>
</svg>
