<svg width="13" height="12" viewBox="0 0 13 12" fill="none" xmlns="http://www.w3.org/2000/svg">
<g clip-path="url(#clip0)">
<path d="M0.0319996 12H12.969C12.806 9.357 10.895 7.163 8.298 6.457C8.81175 6.14929 9.23711 5.71387 9.53273 5.19308C9.82835 4.67228 9.98416 4.08385 9.985 3.485C9.985 2.56072 9.61783 1.6743 8.96427 1.02073C8.3107 0.367169 7.42428 0 6.5 0C5.57572 0 4.6893 0.367169 4.03573 1.02073C3.38217 1.6743 3.015 2.56072 3.015 3.485C3.015 4.749 3.695 5.846 4.703 6.457C2.106 7.163 0.194 9.357 0.0319996 12Z" fill="#FFC600"/>
</g>
<defs>
<clipPath id="clip0">
<rect width="13" height="12" fill="white"/>
</clipPath>
</defs>
</svg>
